<svg xmlns="http://www.w3.org/2000/svg" viewBox="0 0 512 512" width="512" height="512">
  <defs>
    <linearGradient id="tile" x1="0.15" y1="0.05" x2="0.9" y2="1">
      <stop offset="0" stop-color="#2a1f54"></stop>
      <stop offset="0.55" stop-color="#1a1238"></stop>
      <stop offset="1" stop-color="#0e0a22"></stop>
    </linearGradient>
    <radialGradient id="tileGloss" cx="0.3" cy="0.16" r="0.8">
      <stop offset="0" stop-color="#6a57c8" stop-opacity="0.5"></stop>
      <stop offset="1" stop-color="#6a57c8" stop-opacity="0"></stop>
    </radialGradient>
    <radialGradient id="aura" cx="0.5" cy="0.46" r="0.55">
      <stop offset="0" stop-color="#9a7bff" stop-opacity="0.55"></stop>
      <stop offset="1" stop-color="#9a7bff" stop-opacity="0"></stop>
    </radialGradient>
    <radialGradient id="body" cx="0.36" cy="0.28" r="0.95">
      <stop offset="0" stop-color="#eef3ff"></stop>
      <stop offset="0.26" stop-color="#bcc6ff"></stop>
      <stop offset="0.52" stop-color="#8f86fb"></stop>
      <stop offset="0.76" stop-color="#9a6cf2"></stop>
      <stop offset="1" stop-color="#d86ce0"></stop>
    </radialGradient>
    <radialGradient id="warm" cx="0.62" cy="0.86" r="0.5">
      <stop offset="0" stop-color="#ff8de0" stop-opacity="0.65"></stop>
      <stop offset="1" stop-color="#ff8de0" stop-opacity="0"></stop>
    </radialGradient>
    <radialGradient id="spec" cx="0.5" cy="0.5" r="0.5">
      <stop offset="0" stop-color="#ffffff" stop-opacity="0.95"></stop>
      <stop offset="0.6" stop-color="#ffffff" stop-opacity="0.25"></stop>
      <stop offset="1" stop-color="#ffffff" stop-opacity="0"></stop>
    </radialGradient>
    <radialGradient id="shadow" cx="0.5" cy="0.5" r="0.5">
      <stop offset="0" stop-color="#05030f" stop-opacity="0.7"></stop>
      <stop offset="1" stop-color="#05030f" stop-opacity="0"></stop>
    </radialGradient>
    <radialGradient id="tip" cx="0.4" cy="0.35" r="0.7">
      <stop offset="0" stop-color="#ffffff"></stop>
      <stop offset="0.5" stop-color="#b9a6ff"></stop>
      <stop offset="1" stop-color="#7c6cf0"></stop>
    </radialGradient>
  </defs>

  
  <rect x="0" y="0" width="512" height="512" rx="116" fill="url(#tile)"></rect>
  <rect x="0" y="0" width="512" height="512" rx="116" fill="url(#tileGloss)"></rect>

  
  <ellipse cx="256" cy="272" rx="220" ry="210" fill="url(#aura)"></ellipse>

  
  <ellipse cx="256" cy="438" rx="140" ry="30" fill="url(#shadow)"></ellipse>

  
  <rect x="248" y="60" width="16" height="86" rx="8" fill="#6a5cd6"></rect>
  <circle cx="256" cy="58" r="20" fill="url(#tip)"></circle>
  <circle cx="256" cy="58" r="20" fill="none" stroke="#ffffff" stroke-opacity="0.35" stroke-width="2"></circle>

  
  <path d="M256 120&#xA;    C 174 120 120 182 120 266&#xA;    C 120 304 120 334 126 364&#xA;    C 133 398 156 416 192 416&#xA;    C 216 416 230 400 256 400&#xA;    C 282 400 296 416 320 416&#xA;    C 356 416 379 398 386 364&#xA;    C 392 334 392 304 392 266&#xA;    C 392 182 338 120 256 120 Z" fill="url(#body)"></path>
  
  <path d="M256 120&#xA;    C 174 120 120 182 120 266&#xA;    C 120 304 120 334 126 364&#xA;    C 133 398 156 416 192 416&#xA;    C 216 416 230 400 256 400&#xA;    C 282 400 296 416 320 416&#xA;    C 356 416 379 398 386 364&#xA;    C 392 334 392 304 392 266&#xA;    C 392 182 338 120 256 120 Z" fill="url(#warm)"></path>

  
  <ellipse cx="198" cy="196" rx="66" ry="48" fill="url(#spec)" transform="rotate(-24 198 196)"></ellipse>
  <ellipse cx="330" cy="180" rx="16" ry="12" fill="#ffffff" fill-opacity="0.7"></ellipse>

  
  <g fill="#2a1f54">
    <rect x="206" y="232" width="34" height="86" rx="17"></rect>
    <rect x="272" y="232" width="34" height="86" rx="17"></rect>
  </g>
  <g fill="#ffffff" fill-opacity="0.9">
    <circle cx="223" cy="250" r="6"></circle>
    <circle cx="289" cy="250" r="6"></circle>
  </g>
</svg>