<svg xmlns="http://www.w3.org/2000/svg" viewBox="0 0 32 32" width="32" height="32">
  <defs>
    <linearGradient id="tile" x1="0.15" y1="0.05" x2="0.9" y2="1">
      <stop offset="0" stop-color="#2a1f54"></stop>
      <stop offset="1" stop-color="#0e0a22"></stop>
    </linearGradient>
    <radialGradient id="body" cx="0.36" cy="0.28" r="0.95">
      <stop offset="0" stop-color="#eef3ff"></stop>
      <stop offset="0.3" stop-color="#bcc6ff"></stop>
      <stop offset="0.6" stop-color="#8f86fb"></stop>
      <stop offset="0.82" stop-color="#9a6cf2"></stop>
      <stop offset="1" stop-color="#d86ce0"></stop>
    </radialGradient>
  </defs>
  <rect width="32" height="32" rx="8" fill="url(#tile)"></rect>
  <path d="M16 6.5&#xA;    C 10.5 6.5 7.4 10 7.4 15.2&#xA;    C 7.4 18 7.4 20.5 8 22.4&#xA;    C 8.5 24.4 9.8 25.4 11.6 25.4&#xA;    C 12.9 25.4 13.4 24.5 16 24.5&#xA;    C 18.6 24.5 19.1 25.4 20.4 25.4&#xA;    C 22.2 25.4 23.5 24.4 24 22.4&#xA;    C 24.6 20.5 24.6 18 24.6 15.2&#xA;    C 24.6 10 21.5 6.5 16 6.5 Z" fill="url(#body)"></path>
  <g fill="#2a1f54">
    <rect x="12.4" y="13.4" width="3.1" height="7.6" rx="1.55"></rect>
    <rect x="16.5" y="13.4" width="3.1" height="7.6" rx="1.55"></rect>
  </g>
</svg>